<svg width="40" height="40" viewBox="0 0 20 20" fill="none" xmlns="http://www.w3.org/2000/svg">
<path d="M19.6907 2.8866C19.5876 1.54639 18.5567 0.41237 17.1134 0.30928C15.0515 0.10309 12.1649 0 10 0C7.83505 0 4.94845 0.10309 2.8866 0.30928C2.16495 0.30928 1.54639 0.61856 1.13402 1.13402C0.72165 1.64948 0.41237 2.16495 0.30928 2.8866C0.10309 4.94845 0 7.83505 0 9.99996C0 12.165 0.20619 15.0516 0.30928 17.1134C0.41237 18.4536 1.4433 19.5877 2.8866 19.6908C4.94845 19.8969 7.83505 20 10 20C12.1649 20 15.0515 19.7939 17.1134 19.6908C18.4536 19.5877 19.5876 18.5567 19.6907 17.1134C19.8969 15.0516 20 12.165 20 9.99996C20 7.83505 19.8969 4.94845 19.6907 2.8866ZM14.9485 9.96536L11.2371 14.6392C11.134 14.8454 10.9278 14.9485 10.6186 14.9485C10.4124 14.9485 10.3093 14.8454 10.1031 14.7423C9.7938 14.433 9.6907 14.0207 10 13.7114L12.4742 10.8248H5.87629C5.46392 10.8248 5.05155 10.5155 5.05155 9.99996C5.05155 9.48456 5.36082 9.17526 5.87629 9.17526H12.3711L9.8969 6.28866C9.5876 5.97938 9.6907 5.46392 10 5.25773C10.3093 4.94845 10.8247 5.05154 11.0309 5.36082L14.9485 9.96536Z" fill="#DB5071"/>
</svg>
