<svg width="40" height="40" viewBox="0 0 20 20" fill="none" xmlns="http://www.w3.org/2000/svg">
<path d="M0.30928 17.1134C0.41237 18.4536 1.4433 19.5876 2.8866 19.6907C4.94845 19.8969 7.83505 20 10 20C12.1649 20 15.0515 19.8969 17.1134 19.6907C17.8351 19.6907 18.4536 19.3814 18.866 18.866C19.2784 18.3505 19.5876 17.8351 19.6907 17.1134C19.8969 15.0515 20 12.1649 20 10C20 7.83505 19.7938 4.94845 19.6907 2.8866C19.5876 1.54639 18.5567 0.41237 17.1134 0.30928C15.0515 0.10309 12.1649 0 10 0C7.83505 0 4.94845 0.20619 2.8866 0.30928C1.54639 0.41237 0.41237 1.4433 0.30928 2.8866C0.10309 4.94846 0 7.83505 0 10C0 12.165 0.10309 15.0515 0.30928 17.1134ZM5.05155 10.0347L8.7629 5.36083C8.866 5.15464 9.0722 5.05155 9.3814 5.05155C9.5876 5.05155 9.6907 5.15464 9.8969 5.25773C10.2062 5.56701 10.3093 5.97938 10 6.28866L7.52577 9.1753H14.1237C14.5361 9.1753 14.9485 9.4845 14.9485 10C14.9485 10.5155 14.6392 10.8247 14.1237 10.8247H7.62887L10.1031 13.7113C10.4124 14.0206 10.3093 14.5361 10 14.7423C9.6907 15.0515 9.1753 14.9485 8.9691 14.6392L5.05155 10.0347Z" fill="#DB5071"/>
</svg>
