<svg width="40" height="40" viewBox="0 0 513 513" fill="none" xmlns="http://www.w3.org/2000/svg">
<g clip-path="url(#clip0_111_21)">
<path d="M347.371 207.307L321.771 181.707C318.434 178.37 313.041 178.37 309.705 181.707L221.871 269.541L193.771 241.441C190.434 238.104 185.041 238.104 181.705 241.441L156.105 267.041C152.768 270.377 152.768 275.771 156.105 279.107L215.838 338.84C217.502 340.513 219.687 341.34 221.871 341.34C224.056 341.34 226.24 340.504 227.904 338.84L347.371 219.373C350.708 216.037 350.708 210.644 347.371 207.307ZM221.871 320.741L174.204 273.074L187.738 259.54L215.838 287.64C219.175 290.977 224.568 290.977 227.904 287.64L315.738 199.806L329.272 213.34L221.871 320.741Z" fill="#DB5071"/>
<path d="M510.025 301.746L471.915 256.007L510.025 210.268C512.15 207.725 512.602 204.184 511.203 201.189C509.795 198.194 506.783 196.274 503.472 196.274H391.403L383.919 143.871C383.322 139.664 379.721 136.541 375.471 136.541H310.293C300.241 128.161 261.465 95.854 261.465 95.854C258.299 93.209 253.708 93.209 250.542 95.854L201.714 136.541H136.536C132.286 136.541 128.694 139.664 128.088 143.863L120.604 196.275H8.53799C5.22699 196.275 2.21499 198.195 0.806994 201.19C-0.601006 204.194 -0.140006 207.735 1.98499 210.269L40.095 256.008L1.98499 301.747C-0.140006 304.29 -0.592006 307.831 0.806994 310.826C2.21499 313.83 5.22699 315.741 8.53799 315.741H120.606C122.884 331.656 128.098 368.153 128.098 368.153C128.695 372.36 132.296 375.475 136.537 375.475H201.715L250.543 416.162C252.13 417.485 254.067 418.142 256.004 418.142C257.941 418.142 259.887 417.485 261.465 416.162L310.284 375.475C323.545 375.475 375.487 375.509 375.47 375.475C379.72 375.475 383.312 372.352 383.918 368.153C383.918 368.153 389.132 331.656 391.41 315.741H503.47C506.781 315.741 509.793 313.821 511.201 310.826C512.611 307.821 512.15 304.28 510.025 301.746ZM26.757 298.674L57.759 261.469C60.396 258.303 60.396 253.704 57.759 250.546L26.757 213.34H109.786L78.784 250.545C76.147 253.711 76.147 258.31 78.784 261.468L109.786 298.673H26.757V298.674ZM377.46 301.737C377.042 302.24 376.675 302.795 376.385 303.384C375.788 304.579 375.762 304.63 368.082 358.407C305.2 358.407 305.14 358.441 303.391 359.312C302.802 359.611 302.248 359.969 301.744 360.387L256.005 398.497L210.266 360.387C208.739 359.107 206.801 358.407 204.805 358.407H143.937C136.257 304.63 136.231 304.579 135.634 303.384C135.335 302.795 134.977 302.241 134.559 301.737L96.449 256.007L134.559 210.268C135.575 209.048 136.232 207.58 136.453 206.01L143.937 153.607H204.805C206.802 153.607 208.73 152.907 210.266 151.627L256.005 113.517C302.495 152.258 302.529 152.275 303.391 152.711C304.577 153.3 305.883 153.607 307.205 153.607H368.073L375.557 206.019C375.779 207.589 376.436 209.057 377.451 210.277L415.561 256.007L377.46 301.737ZM402.223 298.674L433.225 261.469C435.862 258.303 435.862 253.704 433.225 250.546L402.223 213.341H485.252L454.25 250.546C451.613 253.712 451.613 258.311 454.25 261.469L485.252 298.674H402.223Z" fill="#DB5071"/>
</g>
<defs>
<clipPath id="clip0_111_21">
<rect width="512.01" height="512.01" fill="white"/>
</clipPath>
</defs>
</svg>
