<svg width="50" height="50" viewBox="0 0 463 463" fill="none" xmlns="http://www.w3.org/2000/svg">
<g clip-path="url(#clip0_111_2)">
<path d="M388.909 272H388.578C395.635 262.748 401.832 250.329 401.587 235.393C401.256 215.205 389.188 195.454 365.719 176.688C368.653 167.877 369.276 159.19 367.554 150.679C360.73 116.962 324.142 103.496 290.567 96.01C291.76 92.046 292.409 87.848 292.409 83.5C292.409 67.046 283.224 52.698 269.714 45.308C283.155 18.017 301.077 15 308.286 15C317.471 15 323.246 16.966 326.587 18.739C329.186 20.118 332.336 19.896 334.678 18.116C339.039 14.801 338.477 8.1 333.641 5.527C328.261 2.663 320.085 0 308.286 0C293.907 0 280.421 6.616 269.286 19.132C265.537 23.346 260.119 30.449 255.387 40.485C253.273 40.168 251.11 40 248.909 40C232.596 40 218.359 49.031 210.915 62.352C208.19 59.341 205.18 55.402 203.059 50.944C202.167 49.069 200.537 47.648 198.558 47.019C196.579 46.391 194.427 46.61 192.617 47.626C170.195 60.204 153.824 76.961 143.957 97.432C135.519 114.939 133.959 131.068 133.93 140.447C133.296 140.693 132.668 140.939 132.081 141.191C112.668 149.511 101.474 165.35 99.706 186.995C99 195.647 99.977 203.542 101.02 208.96C85.571 214.496 74.827 225.079 70.953 238.948C67.895 249.896 69.473 261.774 74.892 272.001H68.908C66.627 272.001 64.47 273.039 63.046 274.822C61.623 276.605 61.089 278.938 61.594 281.163L98.763 444.709C101.211 455.479 110.634 463.001 121.679 463.001H336.136C347.18 463.001 356.604 455.479 359.052 444.709L396.221 281.163C396.726 278.938 396.192 276.605 394.769 274.822C393.348 273.038 391.191 272 388.909 272ZM248.909 55C264.624 55 277.409 67.785 277.409 83.5C277.409 99.215 264.624 112 248.909 112C233.194 112 220.409 99.215 220.409 83.5C220.409 67.785 233.195 55 248.909 55ZM121.681 448C117.686 448 114.278 445.279 113.392 441.384L78.305 287H102.579L129.392 444.306C129.61 445.586 129.917 446.816 130.29 448H121.681V448ZM148.488 448C147.126 448 144.871 445.84 144.18 441.786L117.796 287H142.213L160.042 443.893C160.205 445.323 160.443 446.695 160.75 448H148.488V448ZM176.651 448C176.129 447.151 175.299 445.299 174.947 442.199L157.31 287H181.823L190.714 443.471C190.805 445.079 190.945 446.588 191.131 448H176.651ZM221.409 448H206.331C206.074 446.715 205.821 444.941 205.689 442.621L196.847 287H220.886C220.895 287 220.904 287.002 220.913 287.002C220.926 287.002 220.938 287 220.951 287H221.409V448V448ZM252.129 442.621C251.997 444.941 251.744 446.716 251.487 448H236.409V287H260.971L252.129 442.621ZM281.168 448H266.687C266.874 446.589 267.013 445.08 267.104 443.471L275.995 287H300.509L282.872 442.199C282.52 445.299 281.691 447.151 281.168 448ZM309.331 448H297.068C297.376 446.695 297.614 445.323 297.777 443.893L315.605 287H340.022L313.638 441.786C312.948 445.84 310.693 448 309.331 448ZM344.426 441.384C343.541 445.28 340.132 448 336.137 448H327.527C327.9 446.816 328.207 445.586 328.425 444.306L355.239 287H371.135C371.141 287 371.147 287.001 371.154 287.001C371.162 287.001 371.169 287 371.177 287H379.514L344.426 441.384ZM368.307 272H253.307C270.17 263.189 292.013 250.842 312.596 236.402C315.987 234.023 316.807 229.346 314.428 225.955C312.049 222.564 307.372 221.744 303.981 224.123C268.255 249.188 227.348 268.322 219.292 272H93.137C85.684 263.953 82.648 252.844 85.402 242.982C88.52 231.817 98.59 223.999 113.757 220.965C128.003 218.116 165.672 210.185 207.691 198.103C211.671 196.958 213.971 192.803 212.826 188.822C211.681 184.842 207.53 182.54 203.545 183.687C166.091 194.457 132.145 201.884 115.554 205.295C113.261 192.95 111.746 166.225 137.991 154.977C148.12 150.636 168.647 146.898 190.379 142.941L197.639 141.616C201.713 140.868 204.41 136.96 203.662 132.886C202.914 128.811 199.006 126.115 194.932 126.863L187.692 128.185C173.659 130.74 160.113 133.208 149.06 135.911C150.08 118.434 157.483 87.568 193.592 64.517C196.302 68.565 199.215 71.899 201.53 74.286C203.146 75.952 204.525 77.257 205.73 78.305C205.526 80.011 205.409 81.742 205.409 83.502C205.409 107.488 224.923 127.002 248.909 127.002C263.004 127.002 275.55 120.258 283.504 109.833C298.296 112.979 310.536 116.618 320.421 120.869C322.296 123.706 322.039 125.745 321.52 127.374C319.657 133.211 308.038 149.262 240.549 172.165C236.627 173.496 234.526 177.755 235.857 181.677C236.917 184.801 239.833 186.769 242.959 186.769C243.758 186.769 244.571 186.64 245.37 186.369C269.56 178.16 289.184 169.962 303.697 162.003C322.064 151.93 332.569 142.094 335.811 131.934C336.05 131.185 336.241 130.437 336.401 129.688C345.622 136.385 350.956 144.281 352.854 153.657C355.613 167.287 349.417 182.336 334.44 198.386C331.614 201.414 331.778 206.16 334.807 208.986C336.253 210.335 338.089 211.003 339.922 211.003C341.928 211.003 343.93 210.203 345.407 208.62C351.009 202.617 355.591 196.641 359.16 190.708C377.12 205.784 386.35 220.889 386.591 235.641C386.858 252.009 376.05 264.893 368.307 272Z" fill="#DB5071"/>
</g>
<defs>
<clipPath id="clip0_111_2">
<rect width="463.001" height="463.001" fill="white"/>
</clipPath>
</defs>
</svg>
