<svg width="174" height="174" viewBox="0 0 174 174" fill="none" xmlns="http://www.w3.org/2000/svg">
<path d="M87 87H21.75V97.875H87V87Z" fill="#DB5071"/>
<path d="M65.25 59.8125H10.875V70.6875H65.25V59.8125Z" fill="#DB5071"/>
<path d="M162.684 90.2973L146.372 52.2348C145.954 51.2559 145.257 50.4215 144.369 49.8353C143.48 49.2491 142.439 48.9369 141.375 48.9375H125.062V38.0625C125.062 36.6204 124.49 35.2373 123.47 34.2176C122.45 33.1979 121.067 32.625 119.625 32.625H32.625V43.5H114.187V111.774C111.71 113.213 109.542 115.128 107.808 117.409C106.074 119.689 104.809 122.291 104.085 125.062H69.9148C68.5914 119.937 65.444 115.47 61.0625 112.499C56.6811 109.527 51.3665 108.256 46.1149 108.923C40.8633 109.59 36.0352 112.15 32.5357 116.122C29.0362 120.094 27.1055 125.206 27.1055 130.5C27.1055 135.794 29.0362 140.906 32.5357 144.878C36.0352 148.85 40.8633 151.41 46.1149 152.077C51.3665 152.744 56.6811 151.473 61.0625 148.501C65.444 145.53 68.5914 141.063 69.9148 135.937H104.085C105.271 140.602 107.977 144.737 111.776 147.692C115.575 150.646 120.25 152.249 125.062 152.249C129.875 152.249 134.55 150.646 138.349 147.692C142.148 144.737 144.854 140.602 146.04 135.937H157.687C159.13 135.937 160.513 135.365 161.532 134.345C162.552 133.325 163.125 131.942 163.125 130.5V92.4375C163.125 91.7016 162.975 90.9733 162.684 90.2973ZM48.9375 141.375C46.7866 141.375 44.6841 140.737 42.8957 139.542C41.1073 138.347 39.7134 136.649 38.8903 134.662C38.0672 132.675 37.8518 130.488 38.2715 128.378C38.6911 126.269 39.7268 124.331 41.2477 122.81C42.7686 121.289 44.7063 120.254 46.8159 119.834C48.9254 119.414 51.112 119.63 53.0992 120.453C55.0863 121.276 56.7848 122.67 57.9797 124.458C59.1747 126.247 59.8125 128.349 59.8125 130.5C59.8092 133.383 58.6624 136.147 56.6236 138.186C54.5849 140.225 51.8207 141.372 48.9375 141.375ZM125.062 59.8125H137.791L149.444 87H125.062V59.8125ZM125.062 141.375C122.912 141.375 120.809 140.737 119.021 139.542C117.232 138.347 115.838 136.649 115.015 134.662C114.192 132.675 113.977 130.488 114.396 128.378C114.816 126.269 115.852 124.331 117.373 122.81C118.894 121.289 120.831 120.254 122.941 119.834C125.05 119.414 127.237 119.63 129.224 120.453C131.211 121.276 132.91 122.67 134.105 124.458C135.3 126.247 135.937 128.349 135.937 130.5C135.934 133.383 134.787 136.147 132.749 138.186C130.71 140.225 127.946 141.372 125.062 141.375V141.375ZM152.25 125.062H146.04C144.842 120.405 142.132 116.277 138.336 113.325C134.54 110.373 129.871 108.764 125.062 108.75V97.875H152.25V125.062Z" fill="#DB5071"/>
</svg>
