<svg width="50" height="50" viewBox="0 0 512 512" fill="none" xmlns="http://www.w3.org/2000/svg">
<path d="M512 30.956C512 22.687 508.778 14.913 502.931 9.067C497.083 3.22 489.308 0 481.04 0C472.772 0 464.998 3.22 459.152 9.066L398.08 70.137L364.125 36.18L305.227 95.079L315.98 105.831L364.124 57.685L454.311 147.874L147.875 454.313L137.12 443.558L214.367 366.31L203.614 355.558L126.367 432.805L124.672 431.11L124.674 431.108L104.865 411.303L57.687 364.124L301.643 120.171L290.889 109.419L36.181 364.123L70.138 398.081L9.068 459.154C3.22 465.001 0 472.774 0 481.044C0.001 489.312 3.222 497.087 9.067 502.932C14.913 508.781 22.686 512.001 30.956 512.001C30.957 512.001 30.957 512.001 30.957 512.001C39.225 512.001 46.999 508.78 52.843 502.935L113.919 441.863L147.876 475.821L475.816 147.876L441.859 113.918L502.93 52.846C508.78 46.999 512 39.226 512 30.956ZM42.091 492.182C39.118 495.155 35.164 496.794 30.959 496.794C26.752 496.794 22.798 495.156 19.824 492.179C16.847 489.205 15.208 485.249 15.208 481.042C15.208 476.835 16.846 472.881 19.822 469.907L80.891 408.835L92.942 420.885L103.166 431.11L42.091 492.182ZM492.179 42.093L431.109 103.165L408.834 80.89L469.907 19.819C472.881 16.845 476.834 15.207 481.04 15.207C485.246 15.207 489.203 16.845 492.178 19.822C495.155 22.796 496.793 26.75 496.793 30.956C496.794 35.162 495.154 39.117 492.179 42.093Z" fill="#DB5071"/>
<path d="M228.721 351.975L273.567 307.13L262.814 296.377L217.968 341.223L228.721 351.975Z" fill="#DB5071"/>
</svg>
