<svg width="40" height="40" viewBox="0 0 405 405" fill="none" xmlns="http://www.w3.org/2000/svg">
<g clip-path="url(#clip0_209_2)">
<path d="M244.157 60.111C270.983 62.48 282.931 78.051 286.341 104.942C286.86 105.386 287.327 106.121 287.909 106.229C307.898 109.936 317.044 123.365 320.147 142.17C320.675 145.37 320.697 148.652 321.173 151.863C321.706 155.463 322.701 158.52 326.605 160.43C339.477 166.728 344.71 181.713 340.56 197.861C339.323 202.674 337.741 207.049 338.752 212.526C339.868 218.579 335.417 224.051 330.316 226.65C322.01 230.88 320.38 237.464 319.3 245.795C315.685 273.695 311.199 301.48 307.244 329.337C306.079 337.546 306.235 345.984 304.566 354.066C302.907 362.097 300.241 370.035 297.048 377.605C293.606 385.765 285.926 389.629 278.225 393.027C260.107 401.02 241.024 404.711 221.33 404.876C200.189 405.053 178.977 404.611 158.277 399.943C147.823 397.586 137.831 393.178 127.64 389.669C126.969 389.438 126.424 388.789 125.751 388.629C112.081 385.389 108.999 374.774 107.066 362.823C103.781 342.517 100.088 322.273 96.2779 302.057C92.1779 280.308 87.8169 258.607 83.3509 236.93C82.8999 234.74 81.4319 232.027 79.6129 230.961C55.2789 216.703 59.3299 177.533 80.5759 161.947C84.0589 159.392 87.5609 156.861 91.4639 154.021C91.5739 152.968 92.0189 151.533 91.8209 150.192C88.3339 126.539 98.6069 109.049 116.436 94.907C131.011 92.028 136.245 78.387 146.326 68.939C144.167 65.554 141.641 62.13 139.684 58.408C135.998 51.397 131.867 44.48 129.308 37.046C124.041 21.745 132.235 6.74803 147.906 2.46803C165.016 -2.20497 181.003 -1.32397 192.798 14.662C201.092 8.07603 209.285 3.16603 219.233 1.39303C237.596 -1.88097 251.507 9.74803 250.32 28.662C249.804 36.872 247.408 44.967 245.821 53.105C245.41 55.211 244.834 57.284 244.157 60.111V60.111ZM155.831 331.369C153.751 335.078 151.947 338.981 149.517 342.445C146.841 346.261 143.584 349.668 140.593 353.264C137.617 356.843 137.658 360.085 141.782 363.403C147.041 357.034 152.218 351.082 157.023 344.844C160.712 340.055 160.256 336.434 156.077 330.926C160.363 325.732 157.288 320.292 156.677 314.617C150.564 320.801 145.456 327.499 139.88 333.783C135.698 338.495 134.42 343.23 137.334 349.463C143.769 343.169 149.8 337.269 155.831 331.369ZM235.245 89.118C237.435 91.724 239.916 93.941 241.375 96.7C242.188 98.236 242.025 101.298 240.969 102.527C239.926 103.741 237.131 104.027 235.241 103.758C233.624 103.528 232.137 102.02 230.703 100.932C223.464 95.439 215.149 92.868 206.284 93.738C194.118 94.932 182.041 97.044 169.932 98.805C167.092 99.218 164.278 99.804 161.452 100.31C160.936 99.311 160.42 98.312 159.904 97.312C162.537 95.651 165.17 93.989 168.297 92.016C161.912 85.986 156.256 80.645 149.457 74.225C145.097 80.474 141.539 85.773 137.756 90.906C135.955 93.349 134.162 96.558 131.625 97.578C111.469 105.683 101.032 121.743 102.827 143.131C103.157 147.062 104.702 150.912 104.85 154.832C104.961 157.765 104.509 161.26 102.962 163.624C94.6689 176.297 85.9239 188.674 77.3999 201.198C74.1779 205.931 75.8549 209.657 79.9469 213.543C87.9999 200.751 95.1459 188.29 104.618 177.42C103.375 181.64 101.385 185.375 99.2419 189.019C94.4769 197.121 89.6569 205.191 84.8169 213.249C81.7899 218.29 83.7339 221.253 88.9859 223.302C92.2729 218.458 95.3819 213.608 98.7669 208.96C102.245 204.184 105.991 199.604 109.62 194.938C110.174 195.34 110.729 195.742 111.284 196.145C104.864 206.298 98.4429 216.451 91.4359 227.531C95.6389 229.305 98.7599 230.622 101.623 231.83C110.33 220.642 118.431 210.233 126.532 199.824C127.205 200.296 127.878 200.768 128.551 201.24C125.093 206.453 121.619 211.657 118.179 216.882C114.542 222.405 110.937 227.949 107.006 233.961C114.651 236.65 115.392 230.705 117.992 227.964C120.965 224.829 123.304 221.101 126.148 217.831C128.706 214.891 131.576 212.221 134.309 209.433C134.778 209.922 135.247 210.412 135.715 210.901C129.407 219.547 123.098 228.192 116.192 237.657C119.938 238.76 122.544 239.527 125.375 240.36C127.891 236.791 130.085 233.509 132.456 230.36C134.848 227.183 137.338 224.072 139.927 221.054C142.204 218.4 144.678 215.914 147.065 213.353C147.577 213.864 148.089 214.376 148.602 214.887C143.086 223.28 137.57 231.672 132.054 240.065C132.853 240.667 133.653 241.27 134.452 241.872C141.26 233.518 148.068 225.164 154.876 216.809C155.441 217.23 156.007 217.652 156.572 218.073C151.343 225.687 146.113 233.301 140.302 241.763C143.587 242.178 144.987 242.545 146.373 242.5C161.078 242.02 174.944 245.396 188.699 250.433C195.345 252.867 202.769 254.02 209.879 254.189C232.944 254.737 253.596 245.873 274.14 236.676C281.33 233.457 288.985 231.29 296.36 228.465C303.402 225.768 310.472 223.086 317.287 219.883C319.688 218.755 322.407 216.45 323.199 214.085C325.938 205.91 328.609 197.585 329.939 189.103C331.223 180.912 329.196 171.069 321.307 168.677C310.897 165.52 310.613 158.851 309.355 150.863C308.188 143.453 306.616 135.913 303.805 129.007C300.756 121.515 294.55 117.245 285.85 117.513C274.722 117.856 274.72 117.759 274.543 106.345C274.515 104.536 274.597 102.717 274.432 100.92C272.513 80.087 262.701 70.258 241.835 68.742C239.678 75.411 237.476 82.221 235.245 89.118V89.118ZM149.484 58.621C155.891 49.559 161.787 41.22 167.682 32.881C168.172 36.335 166.997 38.736 165.618 41.012C162.065 46.878 158.523 52.755 154.785 58.503C151.613 63.381 153.487 66.423 158.102 69.306C161.687 64.367 164.88 59.607 168.453 55.151C171.85 50.914 174.799 46.05 180.354 44.063C177.367 49.534 173.464 54.239 170.315 59.404C167.218 64.485 161.43 68.521 162.659 78.027C167.364 72.563 170.688 68.467 174.27 64.612C177.6 61.028 180.331 56.564 186.135 55.949C179.869 63.786 173.602 71.622 166.811 80.115C169.943 83.552 172.716 86.593 175.488 89.635C175.728 88.853 175.968 88.071 176.207 87.289C192.237 86.211 208.267 85.134 224.668 84.031C229.147 68.514 233.942 52.635 238.225 36.62C239.505 31.833 240.027 26.62 239.706 21.679C239.16 13.286 233.797 8.95903 225.293 8.90203C213.451 8.82303 204.9 14.776 200.697 26.025C197.922 33.452 193.074 34.402 188.202 28.215C185.533 24.825 183.75 20.724 180.997 17.418C178.539 14.466 175.666 10.691 172.333 9.86103C163.155 7.57603 153.39 6.95203 145.195 12.729C141.365 15.429 137.867 19.986 136.527 24.401C135.406 28.095 133.081 34.539 140.694 36.246C141.056 36.327 141.548 37.493 141.394 37.964C138.465 46.956 146.45 51.305 149.484 58.621V58.621ZM229.863 265.781C218.223 265.781 207.594 265.781 197.562 265.781C198.09 287.214 198.805 308.091 199.063 328.974C199.32 349.758 199.119 370.546 199.119 392.335C209.726 392.335 218.874 392.335 227.464 392.335C228.263 350.203 229.054 308.462 229.863 265.781V265.781ZM159.694 252.31C164.17 300.208 165.106 345.503 171.702 390.584C178.339 391.191 183.921 391.702 190.838 392.335C189.639 348.72 195.19 306.316 191.468 263.298C181.541 259.864 171.75 256.479 159.694 252.31V252.31ZM251.881 388.854C255.716 343.919 259.455 300.111 263.27 255.405C254.021 258.276 245.231 261.005 235.961 263.883C236.369 306.425 234.639 348.6 236.877 391.457C240.385 391.235 242.516 391.311 244.557 390.918C247.012 390.445 249.392 389.574 251.881 388.854V388.854ZM261.18 385.08C275.85 382.406 275.965 382.208 276.796 370.518C277.332 362.974 278.064 355.442 278.812 347.915C281.591 319.979 284.462 292.052 287.179 264.111C287.789 257.84 287.917 251.522 288.347 243.763C280.663 247.411 274.59 250.296 268.482 253.195C266.056 297.018 263.649 340.49 261.18 385.08V385.08ZM134.729 263.128C131.392 272.116 122.121 279.291 129.518 290.83C134.887 285.063 140.103 279.46 145.32 273.857C145.911 274.316 146.501 274.774 147.092 275.233C142.728 281.102 138.716 287.28 133.903 292.755C128.886 298.463 128.221 304.03 132.737 311.48C139.993 302.916 146.999 294.769 153.817 286.468C154.87 285.187 155.654 283.16 155.551 281.541C154.948 271.989 156.142 262.17 151.96 252.08C145.738 252.08 139.63 251.781 133.579 252.241C131.445 252.403 129.024 254.019 127.478 255.668C123.259 260.168 124.868 265.052 126.667 270.68C129.899 267.654 132.314 265.391 134.729 263.128V263.128ZM294.697 241.593C290.741 256.863 284.598 360.349 287.115 368.934C288.053 367.554 289.383 366.472 289.537 365.242C294.811 323.145 299.147 280.907 310.583 238.254C304.188 239.598 299.739 240.533 294.697 241.593V241.593ZM163.443 388.13C162.277 375.063 161.148 362.41 159.799 347.293C155.528 352.723 153.216 356.354 150.238 359.315C142.715 366.794 140.857 375.088 145.932 385.277C151.032 387.115 156.372 390.277 163.443 388.13V388.13ZM126.303 345.569C129.782 340.147 130.165 334.467 127.236 327.433C119.988 334.52 114.184 340.634 117.836 351.059C119.481 355.754 119.985 360.861 120.87 365.805C122.281 373.692 127.252 378.098 135.596 381.153C134.791 374.965 134.121 369.824 133.347 363.87C130.082 366.282 128.198 367.675 124.576 370.352C127.772 361.006 138.05 353.754 126.303 345.569V345.569ZM135.404 332.222C141.132 325.627 145.734 319.282 151.388 314.081C158.558 307.485 158.062 300.222 155.824 290.278C149.14 298.577 143.876 305.766 137.914 312.32C132.679 318.076 132.092 323.955 135.404 332.222V332.222ZM94.3329 238.415C93.7149 238.944 93.0959 239.472 92.4779 240.001C94.6969 248.543 96.9169 257.085 99.6609 267.645C104.832 259.812 108.564 254.161 112.815 247.721C106.274 244.428 100.303 241.422 94.3329 238.415ZM116.146 247.099C111.119 256.141 107.016 263.568 102.864 270.969C100.679 274.865 101.663 278.171 104.546 281.914C107.816 277.36 110.415 273.022 113.715 269.306C119.042 263.304 120.195 256.891 116.146 247.099V247.099ZM121.009 286.682C107.286 300.001 106.03 303.664 111.425 313.276C126.479 296.057 123.76 298.977 121.009 286.682ZM114.771 331.891C127.676 320.351 128.093 319.182 123.386 307.735C111.515 318.572 110.674 320.929 114.771 331.891ZM118.944 267.232C113.618 277.612 103.52 283.204 106.741 295.375C112.361 287.57 123.296 282.393 118.944 267.232ZM96.3939 167.284C84.0209 171.884 77.2299 180.665 77.2289 194.127C83.6169 185.18 90.0059 176.232 96.3939 167.284Z" fill="white"/>
<path d="M155.613 152.128C143.485 152.427 138.935 145.879 142.17 137.204C146.021 126.878 154.514 122.649 163.283 126.691C171.111 130.3 173.295 138.124 167.303 144.209C163.477 148.096 158.126 150.481 155.613 152.128Z" fill="white"/>
<path d="M209.801 123.361C216.501 123.596 223.509 129.395 223.68 134.844C223.86 140.573 216.734 147.1 210.608 146.819C203.699 146.501 197.816 140.851 197.778 134.498C197.74 128.012 203.017 123.123 209.801 123.361V123.361Z" fill="white"/>
<path d="M193.96 167.288C193.108 174.279 186.858 179.279 180.351 178.176C175.317 177.323 172.177 173.783 172.564 169.398C173.073 163.64 181.387 155.602 186.259 156.16C191.385 156.746 194.667 161.488 193.96 167.288V167.288Z" fill="white"/>
<path d="M245.378 149.401C250.69 149.236 255.161 153.305 255.403 158.522C255.652 163.885 250.765 168.995 245.319 169.066C240.187 169.133 236.389 165.552 236.18 160.449C235.923 154.18 239.757 149.575 245.378 149.401V149.401Z" fill="white"/>
<path d="M147.841 179.821C152.609 179.672 156.614 182.962 156.808 187.186C157.063 192.729 152.346 197.959 147.1 197.952C142.791 197.946 139.247 194.956 138.932 191.062C138.444 185.033 142.442 179.989 147.841 179.821V179.821Z" fill="white"/>
<path d="M221.653 180.609C225.316 180.841 228.578 182.567 229.232 187.211C229.797 191.225 225.532 195.414 221.238 195.37C217.394 195.331 213.848 191.802 213.727 187.896C213.592 183.509 216.406 180.687 221.653 180.609Z" fill="white"/>
<path d="M258.339 118.868C258.489 122.949 255.111 126.177 250.706 126.097C246.633 126.023 243.744 124.104 242.872 120.082C242.112 116.579 246.702 111.77 250.858 111.302C254.497 110.893 258.183 114.62 258.339 118.868Z" fill="white"/>
<path d="M168.526 217.559C164.077 223.881 159.628 230.203 155.179 236.524C154.547 236.078 153.915 235.633 153.283 235.187C155.947 227.605 161.323 221.938 168.526 217.559V217.559Z" fill="white"/>
<path d="M198.826 58.939C193.149 66.697 187.471 74.454 181.794 82.212C181.148 81.752 180.502 81.291 179.856 80.831C183.332 71.583 189.784 64.392 196.947 57.693C197.574 58.108 198.2 58.524 198.826 58.939Z" fill="white"/>
</g>
<defs>
<clipPath id="clip0_209_2">
<rect width="404.907" height="404.907" fill="white"/>
</clipPath>
</defs>
</svg>
