<svg width="202" height="202" viewBox="0 0 202 202" fill="none" xmlns="http://www.w3.org/2000/svg">
<path d="M139.321 201.629C137.864 201.629 136.396 201.489 134.934 201.203C134.894 201.197 134.854 201.191 134.814 201.184C132.698 200.82 82.549 191.843 44.843 154.137C14.447 123.742 4.194 84.726 1.17 69.123C0.606 67.267 0.282 65.332 0.208 63.366C0.185 63.147 0.179 62.928 0.19 62.71C0.136 56.581 2.478 50.84 6.805 46.513L19.623 33.695C20.373 32.945 21.391 32.523 22.451 32.523C23.511 32.523 24.529 32.945 25.279 33.695L66.758 75.175C68.321 76.737 68.321 79.27 66.758 80.831L53.942 93.649C53.615 93.976 53.286 94.286 52.95 94.584C46.963 99.9 45.802 109.21 50.256 116.234C54.535 122.981 59.376 129.072 64.643 134.339C70.882 140.577 78.285 146.229 86.644 151.134C93.481 155.146 102.271 153.86 108.023 148.007L108.162 147.867L120.98 135.05C122.543 133.487 125.074 133.487 126.636 135.05L168.115 176.529C169.678 178.091 169.678 180.624 168.115 182.185L155.298 195.003C151.006 199.296 145.262 201.629 139.321 201.629ZM135.976 193.265C136.086 193.279 136.196 193.296 136.305 193.319C141.162 194.327 146.148 192.841 149.642 189.348L159.63 179.359L123.808 143.537L113.704 153.641C105.402 162.089 92.599 163.906 82.596 158.037C73.65 152.787 65.707 146.718 58.988 139.998C53.306 134.316 48.095 127.764 43.502 120.52C36.971 110.219 38.752 96.496 47.647 88.597C47.873 88.399 48.085 88.197 48.293 87.989L58.277 78.005L22.452 42.18L12.462 52.169C9.63 55.002 8.114 58.778 8.192 62.806C8.195 62.85 8.197 62.893 8.198 62.937C8.238 64.313 8.464 65.662 8.87 66.945C8.916 67.092 8.954 67.243 8.983 67.395C11.814 82.124 21.527 119.508 50.5 148.482C85.282 183.264 132.552 192.626 135.976 193.265ZM197.444 110.944C195.235 110.944 193.444 109.153 193.444 106.944C193.444 52.387 149.058 8 94.5 8C92.291 8 90.5 6.209 90.5 4C90.5 1.791 92.291 0 94.5 0C153.47 0 201.444 47.975 201.444 106.944C201.444 109.153 199.653 110.944 197.444 110.944ZM172.624 110.944C170.415 110.944 168.624 109.153 168.624 106.944C168.624 65.718 135.085 32.179 93.86 32.179C91.651 32.179 89.86 30.388 89.86 28.179C89.86 25.97 91.651 24.179 93.86 24.179C139.496 24.179 176.624 61.307 176.624 106.944C176.624 109.153 174.833 110.944 172.624 110.944ZM147.866 110.944C145.657 110.944 143.866 109.153 143.866 106.944C143.866 79.371 121.433 56.938 93.86 56.938C91.651 56.938 89.86 55.147 89.86 52.938C89.86 50.729 91.651 48.938 93.86 48.938C125.844 48.938 151.866 74.959 151.866 106.944C151.866 109.153 150.075 110.944 147.866 110.944Z" fill="#DB5071"/>
</svg>
